<svg xmlns="http://www.w3.org/2000/svg" viewBox="0 0 23 12"><defs><style>.cls-1{fill:#0a0808;}</style></defs><title>arrow_left</title><g id="Слой_2" data-name="Слой 2"><g id="Слой_1-2" data-name="Слой 1"><path class="cls-1" d="M22.27,4.87H3.59l2.73-3a.84.84,0,0,0,.21-.56A.84.84,0,0,0,6.33.7L5.9.23a.66.66,0,0,0-1,0L.21,5.44a.86.86,0,0,0,0,1.12L4.9,11.77a.66.66,0,0,0,1,0l.43-.47a.83.83,0,0,0,.21-.56.8.8,0,0,0-.21-.55L3.56,7.13H22.28A.78.78,0,0,0,23,6.32V5.65A.76.76,0,0,0,22.27,4.87Z"/></g></g></svg>