<svg xmlns="http://www.w3.org/2000/svg" viewBox="0 0 63.13 34.05"><defs><style>.cls-1{fill:#0a0808;}</style></defs><title>Bl5_icon5</title><g id="Слой_2" data-name="Слой 2"><g id="Слой_1-2" data-name="Слой 1"><path class="cls-1" d="M62.78,16.34l-6.25-6.25a1.22,1.22,0,0,0-.87-.36l-23,.18a16.56,16.56,0,0,0-3.45-5A17.17,17.17,0,0,0,4.89,29.16,17.05,17.05,0,0,0,29,29a17.29,17.29,0,0,0,3.53-5.08l5.58,0a1.26,1.26,0,0,0,.88-.37l1.9-1.9,1.87,1.87a1.24,1.24,0,0,0,1.76,0l.87-.87.85.85a1.24,1.24,0,0,0,1.76,0l2.16-2.16,2.13,2.13a1.22,1.22,0,0,0,.88.36l3.5,0a1.26,1.26,0,0,0,.88-.37l5.23-5.23A1.24,1.24,0,0,0,62.78,16.34Zm-6.62,4.88-2.47,0L51,18.6a1.24,1.24,0,0,0-1.76,0l-2.16,2.16-.85-.85a1.24,1.24,0,0,0-1.76,0l-.87.87-1.87-1.87a1.24,1.24,0,0,0-1.76,0L37.6,21.37l-5.9,0h0a1.27,1.27,0,0,0-1.15.8,14.75,14.75,0,0,1-3.31,5,14.57,14.57,0,0,1-20.58.16A14.67,14.67,0,0,1,27.39,6.66a14.15,14.15,0,0,1,3.23,5,1.22,1.22,0,0,0,1.14.78h0l23.34-.18,1.57,1.57-19.22.15a1.14,1.14,0,0,0-1.13,1.13,1.1,1.1,0,0,0,1.11,1.11L58.91,16l1.23,1.23ZM6.43,13.82A4.61,4.61,0,1,0,13,13.77,4.66,4.66,0,0,0,6.43,13.82Zm4.78,4.78a2.15,2.15,0,1,1,0-3.07A2.17,2.17,0,0,1,11.21,18.6Z"/></g></g></svg>