<svg xmlns="http://www.w3.org/2000/svg" viewBox="0 0 60 50"><defs><style>.cls-1{fill:#0a0808;}</style></defs><title>Bl5_icon1</title><g id="Слой_2" data-name="Слой 2"><g id="Слой_1-2" data-name="Слой 1"><path class="cls-1" d="M37.48,16.14l-7-5a1,1,0,0,0-1.16,0l-7,5a1,1,0,0,0,.58,1.81h1v7a1,1,0,0,0,1,1h10a1,1,0,0,0,1-1v-7h1a1,1,0,0,0,.58-1.81Zm-7.56-2.95,3.87,2.76H26.05Zm4,10.74h-3v-3h-2v3h-3v-6h8ZM29.92,4a15,15,0,1,0,15,15A15,15,0,0,0,29.92,4Zm0,27.91a13,13,0,1,1,13-13A13,13,0,0,1,29.92,31.9Zm29,11.65-7.67-7.66h8.56v-2H49.29l-4-4a18.92,18.92,0,0,0,2.2-4h9.33a1,1,0,0,0,1-1v-7h1a1,1,0,0,0,.58-1.81l-7-5a1,1,0,0,0-1.16,0l-3.23,2.31A19,19,0,0,0,41.51,4H59.84V2H38.33A18.74,18.74,0,0,0,21.51,2H0V4H18.33a19,19,0,0,0-6.54,9.47L8.56,11.15a1,1,0,0,0-1.16,0l-7,5A1,1,0,0,0,1,17.94H2v7a1,1,0,0,0,1,1h9.33a19,19,0,0,0,6,8H0v2H21.51a18.76,18.76,0,0,0,18.21-.76L53.55,48.94a3.82,3.82,0,0,0,5.4-5.4ZM51.86,13.19l3.87,2.76H48.61c0-.13,0-.27-.06-.4Zm-3,5.75c0-.34,0-.66-.05-1h7v6h-3v-3h-2v3H48.18A18.82,18.82,0,0,0,48.87,18.94ZM8,13.19l3.31,2.36c0,.13,0,.27-.06.4H4.11ZM9,23.92v-3H7v3H4v-6h7c0,.33-.05.66-.05,1a18.82,18.82,0,0,0,.69,5ZM39.38,33a17.12,17.12,0,1,1,4.17-4,1,1,0,0,0-.37.23ZM57.54,47.54a1.82,1.82,0,0,1-2.58,0h0L41.39,34a19.17,19.17,0,0,0,2.68-2.48L57.53,45a1.83,1.83,0,0,1,.5.93A1.79,1.79,0,0,1,57.54,47.54Z"/></g></g></svg>