<svg xmlns="http://www.w3.org/2000/svg" viewBox="0 0 64 40"><defs><style>.cls-1{fill:#0a0808;}</style></defs><title>Bl5_icon2</title><g id="Слой_2" data-name="Слой 2"><g id="Слой_1-2" data-name="Слой 1"><path class="cls-1" d="M62.67,2.67c-10.47,0-16.28,2.68-16.52,2.79a1.32,1.32,0,0,0-.62,1.79c-2-.76-4.83-1.87-7.65-3.14C33.07,2,30,2.63,26.53,5.33H15.86c.06-.43.1-.83.14-1.22A1.33,1.33,0,0,0,15.58,3C13.3.87,4.16.16,1.41,0A1.33,1.33,0,0,0,0,1.33v24a1.33,1.33,0,0,0,1.33,1.33h8a1.33,1.33,0,0,0,1.27-.92l.31-1,1,1C13.09,27,14.32,28.33,15.14,29c5,4.16,10.93,8.65,12.12,9.43A10.23,10.23,0,0,0,32,40a4.59,4.59,0,0,0,3-.89,4.15,4.15,0,0,0,3,0,5.25,5.25,0,0,0,2.78-2.56A5.15,5.15,0,0,0,44.18,36a4.52,4.52,0,0,0,2.23-2.33,4.36,4.36,0,0,0,3.06-1.1,4.2,4.2,0,0,0,1.43-4L53,27.15c.15.48.27.89.36,1.21a1.33,1.33,0,0,0,1.29,1h8A1.33,1.33,0,0,0,64,28V4A1.33,1.33,0,0,0,62.67,2.67ZM8.36,24H2.67V2.76C7,3.1,11.58,3.84,13.26,4.65,12.55,10.49,9.35,20.87,8.36,24Zm39.37,6.58a1.48,1.48,0,0,1-1.62.33c-1-.84-5.21-5.12-7.82-7.84a1.33,1.33,0,0,0-1.93,1.85c.62.65,5.6,5.84,7.6,7.66a1.85,1.85,0,0,1-1,1.07,2,2,0,0,1-2.08,0l0,0,0,0c-1.6-1.28-5.61-5.54-6.52-6.53a1.33,1.33,0,1,0-2,1.81s4,4.27,6.17,6.25a2.57,2.57,0,0,1-1.42,1.43,1.41,1.41,0,0,1-1.53-.24l0,0,0,0c-1.9-1.6-5.79-5.74-6.55-6.56A1.33,1.33,0,0,0,27,31.58c.9,1,3.59,3.82,5.61,5.72a4.63,4.63,0,0,1-.63,0,7.68,7.68,0,0,1-3.27-1.12c-.94-.62-6.81-5-11.87-9.24-.71-.6-1.94-1.89-3-3-.8-.84-1.53-1.59-2-2.05,1.11-3.68,2.72-9.31,3.61-13.9h8.18c-1.82,1.83-4.28,5.5-3.64,8.2a3.3,3.3,0,0,0,2.29,2.4c3,1,5.78,0,7.83-2.68a6.73,6.73,0,0,0,2-.63l.93-.4c1.53,1.43,3.58,3.1,5.75,4.85,3.92,3.17,8.37,6.77,9.37,8.85A1.56,1.56,0,0,1,47.73,30.58Zm2-4.43c-1.84-2.46-5.61-5.52-9.29-8.49-2.42-2-4.71-3.81-6.17-5.27a1.33,1.33,0,0,0-1.39-.31c-.9.33-1.45.58-1.89.77a4.4,4.4,0,0,1-1.79.49,1.33,1.33,0,0,0-1,.58c-1.89,2.82-3.84,2.58-5.14,2.14-.42-.14-.49-.32-.53-.49-.28-1.17,1.13-3.9,2.95-5.72,4.33-4.34,6.57-5.42,11.29-3.31,4.48,2,9,3.64,10.33,4.13,1.57,3.81,3.68,9.72,5,13.83Zm11.6.52H55.66c-1.26-4.12-5-14.85-7.08-19.29a43.41,43.41,0,0,1,12.75-2Z"/></g></g></svg>