<svg xmlns="http://www.w3.org/2000/svg" viewBox="0 0 50 40"><defs><style>.cls-1{fill:#0a0808;}</style></defs><title>Bl5_icon4</title><g id="Слой_2" data-name="Слой 2"><g id="Слой_1-2" data-name="Слой 1"><path class="cls-1" d="M10.76,31.65a1.66,1.66,0,1,0,1.69,1.66A1.68,1.68,0,0,0,10.76,31.65ZM50,18.94A3.94,3.94,0,0,0,46,15H35.62l.66-1.46a16.27,16.27,0,0,0,1.46-6.72s0-2.84,0-2.86a4.08,4.08,0,0,0-7.85-1.5c0,.07-1,2.81-1,2.81a14.2,14.2,0,0,1-4.39,6.27l-4.83,4H16.91V14.31a2.41,2.41,0,0,0-2.43-2.39h-12A2.41,2.41,0,0,0,0,14.31v23.3A2.41,2.41,0,0,0,2.43,40h12a2.41,2.41,0,0,0,2.43-2.39V35.74h1.53l1.51.72a27.09,27.09,0,0,0,11.56,2.6H43a3.94,3.94,0,0,0,4-3.9,3.83,3.83,0,0,0-.7-2.2A3.88,3.88,0,0,0,48,29.76a3.83,3.83,0,0,0-.7-2.2A3.88,3.88,0,0,0,49,24.35a3.83,3.83,0,0,0-.7-2.2A3.88,3.88,0,0,0,50,18.94ZM14.47,37.61h-12V14.31h12v23.3ZM46,20.45H44.31a1.2,1.2,0,1,0,0,2.39H45a1.51,1.51,0,1,1,0,3H43.29a1.2,1.2,0,1,0,0,2.39H44a1.51,1.51,0,1,1,0,3H42.28a1.2,1.2,0,1,0,0,2.39H43a1.51,1.51,0,1,1,0,3H31.5A24.6,24.6,0,0,1,21,34.31l-1.77-.84a1.24,1.24,0,0,0-.53-.12h-1.8V18h3.24a1.23,1.23,0,0,0,.78-.28l5.17-4.26A16.58,16.58,0,0,0,31.22,6.1l1-2.79a1.65,1.65,0,0,1,3.13.7s0,2.85,0,2.85a13.91,13.91,0,0,1-1.25,5.75l-1.42,3.12a1.17,1.17,0,0,0-.05.83,1.24,1.24,0,0,0,1.17.86H46a1.51,1.51,0,1,1,0,3Z"/></g></g></svg>