<svg xmlns="http://www.w3.org/2000/svg" viewBox="0 0 50 50"><defs><style>.cls-1{fill:#0a0808;}</style></defs><title>Bl5_icon3</title><g id="Слой_2" data-name="Слой 2"><g id="Слой_1-2" data-name="Слой 1"><path class="cls-1" d="M47.33,37.65H40.78V30.43a2.7,2.7,0,0,0-2.67-2.69H21.84a1.93,1.93,0,0,0-1.46.49,3.43,3.43,0,0,0-1.46-.49H2.67A2.7,2.7,0,0,0,0,30.43v7a2.7,2.7,0,0,0,2.67,2.69H9.22v7.46S8.85,50,11.72,50H47.33A2.7,2.7,0,0,0,50,47.31v-7A2.7,2.7,0,0,0,47.33,37.65ZM21.84,30.07H38.11a.26.26,0,0,1,.24.25v7a.26.26,0,0,1-.24.25H22a.26.26,0,0,1-.24-.25v-7C21.6,30.19,21.72,30.07,21.84,30.07ZM2.67,37.65a.26.26,0,0,1-.24-.24v-7a.26.26,0,0,1,.24-.24H18.93a.26.26,0,0,1,.24.24v7a.26.26,0,0,1-.24.24H2.67Zm25.61,9.78a.26.26,0,0,1-.24.24H11.89a.26.26,0,0,1-.24-.24v-7a.26.26,0,0,1,.24-.24H28a.26.26,0,0,1,.24.24Zm19.3,0a.26.26,0,0,1-.24.24H31.07a.26.26,0,0,1-.24-.24v-7a.26.26,0,0,1,.24-.24H47.33a.26.26,0,0,1,.24.24ZM11.41,9.4a2.46,2.46,0,0,0,1.82.73h.12c.24,0,.49-.12.73-.12l1.21,1V14.9l-4.61,4.65a1.11,1.11,0,0,0-.36,1.22,1,1,0,0,0,.85.86l13.71,4.16h.36a1.1,1.1,0,0,0,.85-.37,1.18,1.18,0,0,0,.36-1.22L22.82,10.13A1.47,1.47,0,0,0,22,9.28a1.23,1.23,0,0,0-1.21.37l-3,2.93V10.5a1.11,1.11,0,0,0-.49-1L15.9,8.42a2.83,2.83,0,0,0-.61-3.18l-5-4.52A2.66,2.66,0,0,0,6.55.84l-.24.24a2.71,2.71,0,0,0,.12,3.79Zm5.1,7.7,2.55,2.45a1.17,1.17,0,0,0,1.7,0,1.19,1.19,0,0,0,0-1.71L18.2,15.52l2.67-2.69,2.67,9.9-9.71-2.94ZM8,2.8l.24-.25a.23.23,0,0,1,.36,0l5,4.52a.23.23,0,0,1,0,.37l-.24.24a.3.3,0,0,1-.49,0L8,3.16A.23.23,0,0,1,8,2.8Z"/></g></g></svg>